<svg xmlns="http://www.w3.org/2000/svg" version="1.1" xmlns:xlink="http://www.w3.org/1999/xlink" xmlns:svgjs="http://svgjs.dev/svgjs" width="1000" height="911" viewBox="0 0 1000 911"><g transform="matrix(1,0,0,1,-0.24040857799889181,0.36882591093115025)"><svg viewBox="0 0 271 247" data-background-color="#ffffff" preserveAspectRatio="xMidYMid meet" height="911" width="1000" xmlns="http://www.w3.org/2000/svg" xmlns:xlink="http://www.w3.org/1999/xlink"><g id="tight-bounds" transform="matrix(1,0,0,1,0.06515072463770366,-0.09999999999999432)"><svg viewBox="0 0 270.8696985507246 247.2" height="247.2" width="270.8696985507246"><g><svg viewBox="0 0 270.86969855072465 247.20000000000005" height="247.2" width="270.8696985507246"><g><svg viewBox="0 0 270.86969855072465 247.20000000000005" height="247.20000000000005" width="270.86969855072465"><g id="textblocktransform"><svg viewBox="0 0 270.86969855072465 247.20000000000005" height="247.20000000000005" width="270.86969855072465" id="textblock"><g><svg viewBox="0 0 270.86969855072465 247.20000000000005" height="247.20000000000005" width="270.86969855072465"><rect width="270.86969855072465" height="247.20000000000005" x="0" y="0" opacity="1" fill="#0063db" data-fill-palette-color="tertiary"></rect><g transform="matrix(1,0,0,1,23.607599999999998,23.607600000000012)"><svg width="223.65449855072467" viewBox="0.9000000357627869 -40.43000030517578 45.21999740600586 40.43000030517578" height="199.98480000000004" data-palette-color="#ffffff"><path d="M16.89 0L0.9-40.43 2.81-40.43 17.85-2.37 32.89-40.43 34.77-40.43 18.8 0 16.89 0ZM6.57-40.43L19.07-8.79 18.07-6.54 4.69-40.43 6.57-40.43ZM10.38-40.43L20.95-13.6 20.02-11.18 8.47-40.43 10.38-40.43ZM14.14-40.43L22.8-18.48 21.88-16.02 12.26-40.43 14.14-40.43ZM28.25 0L44.21-40.43 46.12-40.43 30.13 0 28.25 0ZM24.46 0L40.45-40.43 42.33-40.43 26.34 0 24.46 0ZM20.68 0L36.65-40.43 38.55-40.43 22.56 0 20.68 0Z" opacity="1" transform="matrix(1,0,0,1,0,0)" fill="#ffffff" class="undefined-text-0" data-fill-palette-color="quaternary" id="text-0"></path></svg></g></svg></g></svg></g></svg></g></svg></g><defs></defs></svg><rect width="270.8696985507246" height="247.2" fill="none" stroke="none" visibility="hidden"></rect></g></svg></g></svg>